<svg width="216" height="43" viewBox="0 0 216 43" fill="none" xmlns="http://www.w3.org/2000/svg">
<path d="M49.5702 26.5536L47.0782 26.3333C45.1221 26.1762 44.3652 25.3884 44.3652 24.0651C44.3652 22.4903 45.564 21.5131 47.8354 21.5131C49.4445 21.5131 50.8638 21.8915 51.9692 22.7421L53.4521 21.2613C52.0626 20.1273 50.076 19.5921 47.8681 19.5921C44.5555 19.5921 42.1576 21.2918 42.1576 24.1282C42.1576 26.6799 43.767 28.0344 46.7954 28.2866L49.3507 28.5069C51.1487 28.6647 51.9376 29.4206 51.9376 30.7751C51.9376 32.6025 50.3601 33.5155 47.8038 33.5155C45.879 33.5155 44.2071 33.0115 42.9753 31.7197L41.4608 33.2321C43.1646 34.8701 45.2152 35.4688 47.8337 35.4688C51.5878 35.4688 54.1434 33.7344 54.1434 30.7436C54.1434 27.8444 52.2818 26.8054 49.5685 26.5529L49.5702 26.5536ZM68.9929 19.5914C66.5026 19.5914 64.9338 20.0815 63.5593 21.8194C63.5405 21.8433 65.0495 23.3082 65.0495 23.3082C65.9642 22.0168 66.9736 21.5447 68.9609 21.5447C71.8004 21.5447 72.9363 22.6786 72.9363 24.9465V26.427H68.2683C64.798 26.427 62.9055 28.1916 62.9055 30.9018C62.8691 32.0636 63.2878 33.1938 64.0727 34.0521C65.0509 35.0605 66.3126 35.4698 68.4576 35.4698C70.5398 35.4698 71.6757 35.0605 72.9387 33.7999V35.2804H75.2102V24.7578C75.2102 21.3872 73.1607 19.5921 68.9953 19.5921L68.9929 19.5914ZM72.9377 29.7997C72.9377 31.0918 72.6851 31.974 72.1488 32.4776C71.1709 33.4229 70.0038 33.5183 68.6789 33.5183C66.2181 33.5183 65.1134 32.6674 65.1134 30.8716C65.1134 29.0758 66.2493 28.1312 68.5844 28.1312H72.9377V29.7997ZM84.1054 21.6095C85.588 21.6095 86.5023 22.0504 87.6701 23.3418C87.6701 23.3418 89.1909 21.8659 89.1784 21.8527C87.5857 20.1512 86.2337 19.5935 84.1068 19.5935C80.1947 19.5935 77.2288 22.2395 77.2288 27.5318C77.2288 32.8242 80.194 35.4709 84.1068 35.4709C86.2518 35.4709 87.6083 34.9034 89.2173 33.1711L87.6715 31.6902C86.5043 32.982 85.5894 33.4545 84.1068 33.4545C82.6864 33.5111 81.3336 32.8475 80.5104 31.6902C79.7848 30.6822 79.501 29.4851 79.501 27.5318C79.501 25.5785 79.7848 24.3814 80.5104 23.3734C81.3334 22.216 82.6864 21.5524 84.1068 21.6095H84.1054ZM103.56 19.7593H100.728L93.6901 26.5997L93.7009 12.8497H91.4287V35.2804H93.7005L93.6898 29.6232L96.4448 26.8623L101.651 35.2804H104.459L98.0184 25.2903L103.56 19.7593ZM114.055 19.3777C111.727 19.3777 110.155 20.2834 109.187 21.3098C107.766 22.7893 107.403 24.5705 107.403 27.4087C107.403 30.2767 107.766 32.0569 109.187 33.5377C110.155 34.5641 111.727 35.4702 114.055 35.4702C116.383 35.4702 117.986 34.5641 118.953 33.5377C120.374 32.0583 120.737 30.277 120.737 27.4087C120.737 24.5708 120.374 22.7893 118.953 21.3098C117.986 20.2834 116.382 19.3777 114.055 19.3777ZM115.899 31.2431C115.407 31.7184 114.739 31.9694 114.055 31.9369C113.38 31.9695 112.722 31.7178 112.241 31.2431C111.424 30.4279 111.334 29.0394 111.334 27.4087C111.334 25.778 111.424 24.4199 112.241 23.6048C112.722 23.13 113.38 22.8783 114.055 22.911C114.739 22.8783 115.407 23.1293 115.899 23.6048C116.715 24.4199 116.806 25.7783 116.806 27.4087C116.806 29.039 116.715 30.4265 115.899 31.2431ZM131.203 19.5581L128.029 29.2794L124.824 19.5574H120.681L126.487 35.2874H129.57L135.345 19.5574L131.203 19.5581ZM142.032 19.377C137.95 19.377 135.169 22.2752 135.169 27.408C135.169 33.7788 138.736 35.4695 142.455 35.4695C145.297 35.4695 146.84 34.5936 148.442 32.9931L146.054 30.669C145.056 31.6656 144.209 32.1484 142.485 32.1484C140.278 32.1484 139.039 30.669 139.039 28.645H148.895V26.8949C148.895 22.5773 146.416 19.377 142.032 19.377ZM139.039 25.9587C139.044 25.3765 139.168 24.8014 139.402 24.268C139.897 23.2696 140.916 22.638 142.032 22.638C143.148 22.638 144.167 23.2696 144.663 24.268C144.896 24.8017 145.019 25.3766 145.025 25.9587H139.039ZM154.693 21.0677V19.5581H150.853V35.2881H154.783V25.8082C154.783 23.8153 156.114 22.9093 157.323 22.9093C158.12 22.8818 158.886 23.223 159.397 23.8341L162.373 20.8564C161.284 19.7693 160.196 19.377 158.654 19.377C157.154 19.3593 155.717 19.973 154.694 21.0677H154.693ZM163.592 17.9184V35.2721H167.523V22.8697H170.425V19.881H167.523V18.1601C167.523 17.2544 167.977 16.7411 168.912 16.7411H170.424V13.4204H168.187C164.981 13.4204 163.591 15.6845 163.591 17.9184H163.592ZM186.606 19.3753C184.279 19.3753 182.706 20.281 181.738 21.3074C180.317 22.7868 179.954 24.5681 179.954 27.4062C179.954 30.2743 180.317 32.0544 181.738 33.5353C182.706 34.5617 184.278 35.4677 186.606 35.4677C188.934 35.4677 190.537 34.5617 191.504 33.5353C192.925 32.0558 193.288 30.2746 193.288 27.4062C193.288 24.5684 192.925 22.7868 191.504 21.3074C190.536 20.281 188.933 19.3753 186.606 19.3753ZM188.45 31.2407C187.958 31.716 187.29 31.967 186.606 31.9344C185.931 31.967 185.273 31.7154 184.792 31.2407C183.976 30.4255 183.885 29.0369 183.885 27.4062C183.885 25.7756 183.976 24.4175 184.792 23.6024C185.273 23.1275 185.931 22.8758 186.606 22.9086C187.29 22.8759 187.958 23.1269 188.45 23.6024C189.266 24.4175 189.357 25.7759 189.357 27.4062C189.357 29.0366 189.266 30.4241 188.45 31.2407ZM211.857 19.5563L209.318 29.2794L206.083 19.5581H203.211L200.005 29.2794L197.466 19.5574H193.294L198.131 35.2874H201.366L204.662 25.4151L207.958 35.2874H211.193L216 19.5574L211.857 19.5563ZM176.223 30.5479V13.4204H172.293V30.7894C172.293 33.0236 173.654 35.2881 176.889 35.2881H179.126V31.9667H177.615C176.617 31.9667 176.225 31.4838 176.225 30.5479H176.223ZM60.443 22.219L62.5432 20.1218H58.2427V15.0226H55.9713V31.122C55.9713 33.4215 57.2961 35.2804 59.9463 35.2804H61.5546V33.3271H60.3562C58.9052 33.3271 58.2427 32.4763 58.2427 31.0589V22.219H60.443Z" fill="#1E1B1D"/>
<path fill-rule="evenodd" clip-rule="evenodd" d="M30.5689 27.6838H34.39V42.9465H0V27.6838H3.82111V39.1308H30.5689V27.6838Z" fill="#BBBBBB"/>
<path d="M7.9854 26.5496L26.7523 30.4884L27.5411 26.7421L8.77429 22.8015L7.9854 26.5496ZM10.4688 17.5761L27.8534 25.6612L29.4729 22.1893L12.0879 14.1042L10.4688 17.5761ZM15.2792 9.05914L30.0176 21.3148L32.4721 18.3715L17.7337 6.1162L15.2792 9.05914ZM24.7927 0L21.715 2.28594L33.1603 17.6528L36.238 15.3672L24.7927 0ZM7.64224 35.3152H26.7478V31.4995H7.64224V35.3152Z" fill="#F58025"/>
</svg>
